<?xml version="1.0" encoding="utf-8"?>
<!-- Generator: Adobe Illustrator 18.0.0, SVG Export Plug-In . SVG Version: 6.00 Build 0)  -->
<!DOCTYPE svg PUBLIC "-//W3C//DTD SVG 1.1//EN" "http://www.w3.org/Graphics/SVG/1.1/DTD/svg11.dtd">
<svg version="1.1" id="Calque_1" xmlns="http://www.w3.org/2000/svg" xmlns:xlink="http://www.w3.org/1999/xlink" x="0px" y="0px"
	 viewBox="65.9 158.5 313.3 52.7" enable-background="new 65.9 158.5 313.3 52.7" xml:space="preserve" preserveAspectRatio="none" height="52.7">
<g>
	<path fill="#0A0605" d="M328.9,165.2c-0.2-2.4,1.6-2,3-2c4.5,0,9-0.3,13.5,0.1c7.8,0.7,15.3-1.3,22.9-2.1c4.5-0.5,7,1.3,6.7,6.2
		c-0.1,1.4,0.1,2.7,1.3,4.2c1.3,1.8,1.7,5.1-0.4,7.6c-1.3,1.5-1.5,2.6,0.4,4.2c2.3,2,4.7,4.8,1.1,8.1c-0.8,0.7-0.6,2.2,0.6,3.7
		c3.2,3.9-0.9,11.7-5.9,11.8c-9.5,0.1-19.3,1.5-28.4-0.3c-17.7-3.4-35.5,0.3-52.9-1.9c-17.7-2.3-35.4-0.4-52.9-2.2
		c-7.5-0.8-15.3,0.1-22.4-1.8c-14.2-3.7-28.5-2.2-42.4-1.2c-10,0.7-20.2-0.3-29.8,1.9c-7.2,1.7-14.3,0-21,1.8
		c-5.9,1.6-12,0.4-17.4,2.1c-4.5,1.4-8.9,0.7-13,1.8c-3,0.8-6.3,1.1-9.1,3.2c-2.8,2.1-7.7-0.3-7.7-3.8c0.1-5.1-1-9.7-3.7-13.9
		c-0.6-0.9,0.1-1.2,0.8-1.8c1.4-1,1.3-2.9,0.2-3.8c-4.2-3.2-3.3-8.6-5.6-12.3c-2.5-4.1,0.8-4.8,2.2-6.8c0.4-0.6,0.8-1.1,1.5-0.9
		c5.4,1.4,10.4-1.4,15.3-2.5c5.9-1.2,12.1,0,17.4-1.9c13.2-4.6,26.5-3.6,39.9-3.7c16.5-0.1,33.1-1.2,49.4,0.3
		c20.8,1.9,41.6,1.3,62.4,1.9c0.1,2.8-4,0.9-4,3.6c-2,0.1-4,0.3-6,0.3c-16.1-0.6-32.2-0.4-48.3-1.5c-25.3-1.8-50.9-0.5-76.4-0.4
		c-4.9,0-9.9,1.1-14.2,2.5c-6.8,2.2-13.7,1.1-20.4,3.1c-5.1,1.5-10.5,3.7-16.3,2.9c1.4,1.5,1.7,2.9,2,4.5c1.4,7.9,2.6,8.9,10.7,9.4
		c2.5,0.2,4.3,1.6,6.9,2.8c-14.6,3.1-13.3,4.3-9.9,10.8c0,1.2-0.1,2.3,0,3.5c0.1,3.5,0,5.7,5,3.1c3.7-1.9,8.3-3.6,13.1-2.7
		c1.4,0.3,3.3,0.5,4.4-0.1c6.6-4.1,14.2-0.7,21.3-3.4c6.3-2.4,13.6-0.3,20.7-2c9.4-2.2,19.5-1.1,29.2-1.9c14.1-1,28.5-2.3,42.7,1.2
		c7.3,1.8,15.1,0.8,22.8,1.8c16.4,2.2,33.1-0.3,49.7,2.1c18.5,2.6,37.5-1.4,56.2,2.1c8.9,1.6,18.3,0.3,27.4,0.3c1.5,0,3.5,0.1,3.2-2
		c-0.3-2,2.3-5.2-2-5.9c-1.7,0-3.2-0.2-4.1-2c0.1-2.5,2-2.2,3.5-2.1c1.5,0,2.7-0.3,2.6-2c0-1.6,1.1-3.8-1.9-4
		c-0.5-2.3-2.4-1.9-3.9-1.9c-3-0.1-6.1,0-9.1,0c3.3-2.8,6.5-5,10.3-5.6c2.3-0.4,2.6-1.5,2.6-3.3c0-2.9-2.7-5-2.4-8.1
		c0.1-1.1-1.9-0.7-3-1c-3.4-1-6.1,1.9-9.2,1.9c-8.4,0.1-16.9-0.1-25.3-0.2C332.4,164.4,330.4,165.4,328.9,165.2z"/>
	<path fill="#140F0D" d="M251,164.9c0-2.6,4.1-0.8,4-3.6c12.1,2.5,24.5,1.1,36.7,2c12.4,0.9,24.8,2.5,37.2,1.8
		c1.5,0.3,3.5-0.7,4.1,1.8c-7.9,2.1-16,2.6-24.2,2c-3.6-0.3-7.2-1.4-10.5-1.5C282.5,167,266.6,167.6,251,164.9z"/>
	<path fill="#C6AF98" d="M251,164.9c15.7,2.7,31.5,2.1,47.3,2.5c3.4,0.1,7,1.3,10.5,1.5c8.2,0.6,16.2,0.1,24.2-2
		c8.4,0.1,16.9,0.3,25.3,0.2c3.1-0.1,5.8-2.9,9.2-1.9c1.1,0.3,3.1-0.1,3,1c-0.3,3.1,2.4,5.2,2.4,8.1c0,1.7-0.3,2.9-2.6,3.3
		c-3.8,0.6-7,2.8-10.3,5.6c3,0,6.1,0,9.1,0c1.6,0,3.4-0.4,3.9,1.9c0.3,2.3,0.1,4-3.1,4.2c-2.3,0.2-4.5,1.8-7.1,2.9
		c2.3,1.4,4.2,0.8,5.9,1.1c0.8,1.8,2.4,2,4.1,2c0.7,4.1-1.4,5.9-5.2,5.9c-6.9,0-13.8-0.1-20.8-0.1c-1.2-2.8-3.7-4.3-6.3-4.6
		c-2.6-0.2-6.4-2.1-7.6,2.6c-15.3,0-30.7,0-46,0c-0.6-3.1-2.7-3.8-5.5-3.8c-15,0.1-29.9,0.1-44.9,0.1c-14.7,1.1-29.1-2.8-43.8-2.3
		c-12.1,0.4-24.3,0.4-36.3,2.1c-6.4,0.9-12.9,0.2-19.5,1.6c-8.1,1.7-16.8,1.4-25.3,2.1c-7.5,0.7-14.8,2.2-22.3,2.9
		c-4.5,0.4-7.7,1.9-10.5-2.5c-3.4-6.5-4.7-7.6,9.9-10.8c-2.7-1.2-4.4-2.7-6.9-2.8c-8.1-0.5-9.3-1.5-10.7-9.4c-0.3-1.7-0.6-3.1-2-4.5
		c5.8,0.8,11.2-1.4,16.3-2.9c6.8-2,13.7-1,20.4-3.1c4.3-1.4,9.4-2.5,14.2-2.5c25.5-0.1,51-1.4,76.4,0.4c16.2,1.1,32.2,0.9,48.3,1.5
		C247,165.2,249,165,251,164.9z"/>
	<path fill="#6B6055" d="M287,199c15.3,0,30.7,0,46,0c4.9-0.7,9.3,1.4,14,2c6.9,0.1,13.8,0.2,20.8,0.1c3.8,0,5.8-1.8,5.2-5.9
		c4.3,0.7,1.7,3.9,2,5.9c0.3,2.1-1.7,2-3.2,2c-9.2,0-18.6,1.4-27.4-0.3c-18.8-3.5-37.7,0.6-56.2-2.1c-16.7-2.4-33.3,0.1-49.7-2.1
		c-7.7-1-15.5-0.1-22.8-1.8c-14.3-3.5-28.7-2.2-42.7-1.2c-9.8,0.7-19.8-0.3-29.2,1.9c-7.1,1.6-14.5-0.4-20.7,2
		c-7.1,2.7-14.7-0.7-21.3,3.4c-1.1,0.7-3,0.4-4.4,0.1c-4.8-0.9-9.4,0.8-13.1,2.7c-5,2.6-4.9,0.4-5-3.1c0-1.2,0-2.3,0-3.5
		c2.7,4.5,6,2.9,10.5,2.5c7.5-0.7,14.8-2.3,22.3-2.9c8.5-0.7,17.2-0.4,25.3-2.1c6.6-1.4,13-0.7,19.5-1.6c12.1-1.7,24.2-1.7,36.3-2.1
		c14.7-0.5,29.1,3.3,43.8,2.3c0.7,2.6,2.8,1.8,4.5,1.8c11.8,0.1,23.6,0,35.4,0C280.2,197.1,283.8,196.9,287,199z"/>
	<path fill="#6B6055" d="M368.8,193.3c-1.7-0.3-3.6,0.3-5.9-1.1c2.6-1.1,4.8-2.7,7.1-2.9c3.2-0.3,3.3-1.9,3.1-4.2
		c3,0.2,1.9,2.4,1.9,4c0.1,1.7-1.1,2.1-2.6,2C370.8,191.1,368.9,190.8,368.8,193.3z"/>
	<path fill="#C4B29E" d="M287,199c-3.2-2.1-6.8-1.9-10.4-1.9c-11.8,0-23.6,0-35.4,0c-1.7,0-3.8,0.8-4.5-1.8c15,0,29.9-0.1,44.9-0.1
		C284.3,195.2,286.4,195.9,287,199z"/>
	<path fill="#C4B29E" d="M346.9,201c-4.7-0.6-9.1-2.7-14-2c1.2-4.7,5-2.8,7.6-2.6C343.2,196.7,345.7,198.2,346.9,201z"/>
</g>
</svg>
