<?xml version="1.0" encoding="utf-8"?>
<!-- Generator: Adobe Illustrator 16.0.0, SVG Export Plug-In . SVG Version: 6.00 Build 0)  -->
<!DOCTYPE svg PUBLIC "-//W3C//DTD SVG 1.1//EN" "http://www.w3.org/Graphics/SVG/1.1/DTD/svg11.dtd">
<svg version="1.1" id="Calque_1" xmlns="http://www.w3.org/2000/svg" xmlns:xlink="http://www.w3.org/1999/xlink" x="0px" y="0px"
	 width="340.16px" height="340.16px" viewBox="0 0 340.16 340.16" enable-background="new 0 0 340.16 340.16" xml:space="preserve">
<g>
	<path fill-rule="evenodd" clip-rule="evenodd" d="M126.975,274.615c-2.308,3.018-3.531,6.111-5.676,7.012
		c-2.238,0.939-5.003-1.297-7.379-2.471c-7.304-3.605-14.496-2.568-21.73,0.158c-7.823,2.949-15.721,1.297-23.6,0.266
		c-3.543-0.465-7.085-0.934-10.624-1.424c-5.548-0.766-6.08-1.645-4.57-7.27c0.292-1.088,0.253-2.277,0.623-3.33
		c1.175-3.348,1.853-6.32,0.127-10.053c-1.242-2.688-1.105-6.457,0.334-9.645c2.95-6.533,2.138-13.486,2.306-20.344
		c0.043-1.768-1.234-2.572-1.834-3.848c-0.924-1.959-2.509-4.148-0.018-6.201c0.721-0.596,0.905-1.391,0.789-2.24
		c-1.022-7.475,2.467-14.35,2.853-21.635c0.113-2.127,0.114-4.199-0.22-6.363c-2.206-14.285-3.959-28.578-1.761-43.095
		c0.663-4.378-1.973-8.849-0.014-13.5c0.635-1.507,0.315-3.307,2.201-4.229c0.719-0.353,1.111-1.455,0.221-1.856
		c-3.398-1.533-2.437-4.554-2.183-6.942c0.989-9.294-3.277-18.126-2.125-27.422c0.617-4.977,3.558-9.816,1.919-14.873
		c-2.032-6.271-1.881-12.614-1.874-19.005c0.007-5.22,0.129-10.303,1.73-15.494c1.093-3.545,2.902-4.471,5.749-4.61
		c12.03-0.59,24.002-0.724,35.693-4.788c5.317-1.849,11.414,0.328,17.152,0.803c11.193,0.924,22.056,5.155,33.425,3.853
		c7.891-0.903,15.734-1.508,23.506,0.155c8.562,1.832,17.043,0.539,25.514-0.138c12.453-0.994,24.402,3.946,36.726,2.96
		c11.491-0.921,22.984-2.379,34.306-4.507c3.495-0.657,5.447,1.441,8.253,1.684c9.971,0.861,10.019,0.962,9.916,11.207
		c-0.048,4.763-1.164,9.434-1.115,14.256c0.035,3.509,2.039,6.854,1.058,10.225c-1.656,5.693-0.071,11.253-0.165,16.839
		c-0.121,7.261,1.062,14.635-1.536,21.938c-1.446,4.063,0.934,8.687,1.983,12.849c1.494,5.921-0.398,11.174-1.136,16.741
		c-0.81,6.107-2.58,11.929-1.403,18.546c1.408,7.916,0.368,16.273,0.321,24.439c-0.021,3.424-4.756,4.146-4.485,7.746
		c5.577,0.332,7.023,2.73,5.362,9.508c-1.437,5.867-1.321,11.617,0.451,17.398c1.177,3.838,1.426,7.805-0.416,11.49
		c-0.716,1.434-0.792,2.77-0.915,4.238c-0.561,6.645,1.281,13.41-1.64,20.008c-0.766,1.729,1.023,4.498,2.222,6.611
		c1.305,2.301,2.069,4.582,0.776,7.393c-0.857,1.861-0.191,4.031,0.422,6.197c1.875,6.625,0.001,8.67-6.443,8.34
		c-9.065-0.465-18.142-0.756-27.216-1.014c-6.56-0.188-13.039,0.645-19.271,2.674c-3.6,1.172-6.994-0.172-10.123-0.914
		c-6.837-1.619-13.729-0.33-20.59-1.518c-5.229-0.906-10.96-0.625-15.833-2.496c-7.486-2.875-14.479-1.928-21.266,0.846
		c-10.288,4.203-20.896,3.275-31.521,3.336C128.932,283.137,125.396,281.873,126.975,274.615z"/>
	<path fill-rule="evenodd" clip-rule="evenodd" fill="#C6B199" d="M276.794,190.242c-0.208,2.199,0.968,3.02,2.979,2.91
		c3.539-0.191,4.162,1.736,3.731,4.756c-1.095,7.684-1.866,15.361,0.924,22.918c0.376,1.02,0.489,2.441,0.08,3.4
		c-4.01,9.412,0.29,19.863-3.726,29.26c-0.235,0.551-0.24,1.482,0.075,1.943c4.56,6.672,2.198,14.508,3.723,21.678
		c-1.03,1.01-2.295,1.258-3.676,1.143c-9.057-0.752-18.141-0.309-27.208-0.615c-6.494-0.219-12.895,0.65-19.205,2.057
		c-2.679,0.598-5.218,0.428-7.861-0.008c-10.792-1.775-21.838-0.812-32.607-3.045c-4.533-0.939-8.94-2.473-13.559-2.971
		c-6.981-0.756-13.543,1.367-19.896,3.682c-9.768,3.559-19.653,2.168-29.557,1.674c-1.079-0.055-1.695-0.943-2.121-1.893
		c-1.27-2.145-1.111-4.539-1.205-6.889c-2.576-1.035-3.342,1.34-4.021,2.654c-2.057,3.973-4.772,4.324-8.618,2.795
		c-2.746-1.092-5.552-2.195-8.506-2.715c-2.792-0.488-5.609-0.836-8.295,0.414c-8.917,4.152-18.26,4.428-27.693,2.721
		c-4.98-0.902-10.315-0.135-14.912-2.959c1.208-6.564,3.5-13.102,0.249-19.748c-0.32-0.654-0.264-1.768,0.079-2.43
		c3.619-6.971,3.682-14.643,2.551-21.855c-2.004-12.789,2.004-25.006,2.061-37.488c0.059-13.049-4.243-25.957-2.65-39.048
		c0.836-6.876-0.408-13.693,0.723-20.497c0.271-1.627,0.717-2.5,2.104-3.444c3.166-2.155,4.493-4.662-0.073-6.896
		c-1.15-0.562-1.912-1.405-1.779-2.711c0.945-9.351-3.01-18.463-1.903-27.616c0.749-6.19,2.757-12.41,1.472-18.527
		c-1.348-6.415-1.453-12.785-1.869-19.225c-0.301-4.663,1.75-8.675,2.371-13.053c0.375-2.651,3.464-2.463,5.78-2.452
		c8.42,0.04,17.178,0.398,25.002-2.254c14.64-4.965,28.54-0.83,42.603,1.458c6.828,1.111,13.771,1.586,20.255,0.432
		c7.31-1.302,14.199,0.104,21.138,0.764c5.48,0.521,11.072,1.213,16.304,0.375c11.69-1.872,22.874,0.38,34.285,1.923
		c9.163,1.239,18.332-0.092,27.488-1.975c9.668-1.988,19.624-2.056,29.456-0.587c2.62,0.392,3.667,2.559,3.457,5.238
		c-0.362,4.617-0.511,9.258-1.046,13.854c-0.829,7.124,2.502,14.306-0.816,21.48c-1.334,2.884,2.066,5.862,1.804,9.006
		c-0.562,6.73-0.036,13.517-1.746,20.215c-0.739,2.896-0.609,6.217,0.302,9.355c2.037,7.008,1.685,13.856,0.447,21.184
		c-1.14,6.754-3.884,13.441-1.418,21.142c1.981,6.186,0.351,13.527,0.322,20.355C281.028,183.711,277.755,186.314,276.794,190.242z"
		/>
	<path fill-rule="evenodd" clip-rule="evenodd" fill="#968373" d="M128.891,277.131c9.701,1.842,19.908,2.941,28.947-0.492
		c12.96-4.924,25.318-4.758,38.27-1.324c5.238,1.389,10.73,1.959,16.197,1.822c5.665-0.143,11.192,0.602,16.758,1.582
		c4.944,0.871,9.712-1.357,14.593-1.945c6.67-0.803,13.33-0.953,19.858-0.381c7.043,0.619,14.127-1.332,21.067,0.715
		c0.327,1.711,0.03,3.391-2.081,2.82c-5.082-1.371-10.177,0.207-15.064-0.25c-5.624-0.525-11.204-0.436-16.797-0.629
		c-5.105-0.174-10.137,0.729-15.073,1.938c-3.244,0.793-6.338,0.598-9.6,0.086c-12.149-1.902-24.813-0.246-36.598-4.201
		c-11.894-3.992-22.538-0.096-33.542,3.146c-6.914,2.037-14.054,1.15-21.112,0.445c-0.794-0.08-1.704-0.459-2.362-0.199
		C128.937,281.613,128.706,279.645,128.891,277.131z"/>
	<path fill-rule="evenodd" clip-rule="evenodd" fill="#948272" d="M55.64,273.152c7.853,0.9,15.705,1.814,23.56,2.701
		c5.725,0.646,11.356-0.635,16.357-2.854c5.037-2.236,9.601-1.91,14.44-0.574c2.532,0.699,5.078,1.523,7.42,2.688
		c2.319,1.154,3.533,0.705,4.73-1.545c0.996-1.869,2.258-3.846,3.926-5.051c2.84-2.055,1.223,0.963,1.613,1.725
		c-1.625,0.307-2.478,1.65-3.363,2.775c-4.804,6.102-4.755,6.09-12.183,3.125c-5.654-2.258-11.059-2.887-17.076-0.094
		c-7.766,3.605-16.273,2.873-24.597,1.781c-4.051-0.531-8.101-1.121-12.112-1.887C57.02,275.688,54.66,275.889,55.64,273.152z"/>
	<path fill-rule="evenodd" clip-rule="evenodd" fill="#8F7D6E" d="M276.794,190.242c0.175-4.379,2.802-7.354,5.797-10.115
		C282.455,184.527,278.549,186.768,276.794,190.242z"/>
</g>
</svg>
